G04 MADE WITH FRITZING*
G04 WWW.FRITZING.ORG*
G04 DOUBLE SIDED*
G04 HOLES PLATED*
G04 CONTOUR ON CENTER OF CONTOUR VECTOR*
%ASAXBY*%
%FSLAX23Y23*%
%MOIN*%
%OFA0B0*%
%SFA1.0B1.0*%
%ADD10C,0.078000*%
%ADD11C,0.056381*%
%ADD12C,0.087268*%
%ADD13C,0.087253*%
%ADD14C,0.067559*%
%ADD15C,0.024000*%
%LNCOPPER0*%
G90*
G70*
G54D10*
X1499Y1310D03*
G54D11*
X1699Y1910D03*
X1699Y1810D03*
X1699Y1710D03*
X1699Y1611D03*
X1199Y1910D03*
X1199Y1810D03*
X1199Y1710D03*
X1199Y1611D03*
G54D12*
X1099Y110D03*
G54D13*
X1296Y110D03*
G54D10*
X899Y1610D03*
X899Y1510D03*
X899Y1410D03*
X899Y1310D03*
X899Y1210D03*
X899Y1110D03*
X899Y1010D03*
X899Y910D03*
X899Y810D03*
X899Y710D03*
X899Y610D03*
X899Y510D03*
X899Y410D03*
X899Y310D03*
G54D14*
X1799Y910D03*
X1199Y710D03*
X1199Y810D03*
X1199Y910D03*
X1199Y1010D03*
X1199Y1110D03*
X1199Y1210D03*
X1499Y1210D03*
X1499Y1110D03*
X1499Y1010D03*
X1499Y910D03*
X1499Y810D03*
X1499Y710D03*
G54D10*
X1899Y1610D03*
X1899Y1510D03*
X1899Y1410D03*
X1899Y1310D03*
X1899Y1210D03*
X1899Y1110D03*
X1899Y1010D03*
X1899Y910D03*
X1899Y810D03*
X1899Y710D03*
X1899Y610D03*
X1899Y510D03*
X1899Y410D03*
X1899Y310D03*
X2299Y910D03*
X2299Y810D03*
X2299Y710D03*
X2299Y610D03*
X2299Y510D03*
G54D15*
X1098Y709D02*
X1174Y710D01*
D02*
X999Y910D02*
X1098Y709D01*
D02*
X929Y910D02*
X999Y910D01*
D02*
X1199Y1310D02*
X1199Y1585D01*
D02*
X1199Y1235D02*
X1199Y1310D01*
D02*
X1098Y311D02*
X1099Y143D01*
D02*
X1399Y1408D02*
X1600Y1408D01*
D02*
X1399Y1010D02*
X1399Y1408D01*
D02*
X1600Y1408D02*
X1600Y311D01*
D02*
X1600Y311D02*
X1098Y311D01*
D02*
X1224Y1010D02*
X1399Y1010D01*
D02*
X1299Y210D02*
X1297Y143D01*
D02*
X1299Y1111D02*
X1299Y1509D01*
D02*
X1299Y1509D02*
X1701Y1509D01*
D02*
X1701Y1509D02*
X1701Y210D01*
D02*
X1701Y210D02*
X1299Y210D01*
D02*
X1224Y1110D02*
X1299Y1111D01*
D02*
X920Y688D02*
X1098Y510D01*
D02*
X1098Y510D02*
X1300Y510D01*
D02*
X1300Y510D02*
X1298Y809D01*
D02*
X1298Y809D02*
X1482Y992D01*
D02*
X1399Y809D02*
X1399Y411D01*
D02*
X1399Y411D02*
X1098Y411D01*
D02*
X1482Y892D02*
X1399Y809D01*
D02*
X1098Y411D02*
X921Y588D01*
D02*
X1499Y1235D02*
X1499Y1280D01*
D02*
X1869Y910D02*
X1824Y910D01*
D02*
X1998Y1010D02*
X1929Y1010D01*
D02*
X1998Y1710D02*
X1998Y1010D01*
D02*
X1724Y1801D02*
X1998Y1710D01*
G04 End of Copper0*
M02*