G04 MADE WITH FRITZING*
G04 WWW.FRITZING.ORG*
G04 DOUBLE SIDED*
G04 HOLES PLATED*
G04 CONTOUR ON CENTER OF CONTOUR VECTOR*
%ASAXBY*%
%FSLAX23Y23*%
%MOIN*%
%OFA0B0*%
%SFA1.0B1.0*%
%ADD10C,0.078000*%
%ADD11C,0.140000*%
%ADD12C,0.087268*%
%ADD13C,0.087253*%
%ADD14C,0.067559*%
%ADD15C,0.095118*%
%ADD16C,0.091181*%
%ADD17C,0.039370*%
%ADD18C,0.024000*%
%LNCOPPER0*%
G90*
G70*
G54D10*
X1389Y818D03*
X1389Y718D03*
X1389Y618D03*
X1389Y818D03*
X1389Y718D03*
X1389Y618D03*
X1489Y618D03*
X1489Y718D03*
X1489Y818D03*
G54D11*
X1489Y2018D03*
X1489Y2258D03*
X1299Y2138D03*
G54D12*
X1192Y218D03*
G54D13*
X1389Y218D03*
G54D12*
X1592Y218D03*
G54D13*
X1789Y218D03*
G54D10*
X989Y1818D03*
X989Y1718D03*
X989Y1618D03*
X989Y1518D03*
X989Y1418D03*
X989Y1318D03*
X989Y1218D03*
X989Y1118D03*
X989Y1018D03*
X989Y918D03*
X989Y818D03*
X989Y718D03*
X989Y618D03*
X989Y518D03*
G54D14*
X1289Y1118D03*
X1289Y1218D03*
X1289Y1318D03*
X1289Y1418D03*
X1289Y1518D03*
X1289Y1618D03*
X1589Y1618D03*
X1589Y1518D03*
X1589Y1418D03*
X1589Y1318D03*
X1589Y1218D03*
X1589Y1118D03*
G54D10*
X1989Y1818D03*
X1989Y1718D03*
X1989Y1618D03*
X1989Y1518D03*
X1989Y1418D03*
X1989Y1318D03*
X1989Y1218D03*
X1989Y1118D03*
X1989Y1018D03*
X1989Y918D03*
X1989Y818D03*
X1989Y718D03*
X1989Y618D03*
X1989Y518D03*
G54D15*
X2889Y618D03*
G54D16*
X2889Y1718D03*
X2889Y1318D03*
X489Y2118D03*
X489Y1718D03*
X489Y1318D03*
X489Y918D03*
X489Y518D03*
X489Y118D03*
G54D15*
X2689Y618D03*
G54D16*
X2689Y1318D03*
X2689Y1718D03*
X289Y2118D03*
X289Y1718D03*
X289Y1318D03*
X289Y918D03*
X289Y518D03*
X289Y118D03*
G54D15*
X2889Y818D03*
G54D16*
X2889Y1918D03*
X2889Y1518D03*
X489Y2318D03*
X489Y1918D03*
X489Y1518D03*
X489Y1118D03*
X489Y718D03*
X489Y318D03*
G54D15*
X2689Y818D03*
G54D16*
X2689Y1518D03*
X2689Y1918D03*
X289Y2318D03*
X289Y1918D03*
X289Y1518D03*
X289Y1118D03*
X289Y718D03*
X289Y318D03*
G54D10*
X2389Y1118D03*
X2389Y1018D03*
X2389Y918D03*
X2389Y818D03*
X2389Y718D03*
G54D17*
X1189Y418D03*
X1389Y418D03*
X1789Y418D03*
X1589Y418D03*
X1290Y919D03*
X1290Y1019D03*
X1590Y919D03*
X189Y1218D03*
X789Y1218D03*
X589Y2118D03*
X589Y1718D03*
X589Y1318D03*
X589Y918D03*
X589Y518D03*
X589Y118D03*
X890Y1117D03*
X1590Y1019D03*
X1189Y1618D03*
X1189Y1518D03*
X1189Y1418D03*
X1189Y1318D03*
X2089Y718D03*
X2089Y818D03*
X2589Y1718D03*
X2889Y1218D03*
X2389Y1218D03*
G54D18*
X2891Y517D02*
X2019Y518D01*
D02*
X2890Y580D02*
X2891Y517D01*
D02*
X2650Y618D02*
X2019Y618D01*
D02*
X959Y624D02*
X525Y711D01*
D02*
X961Y507D02*
X523Y332D01*
D02*
X689Y1118D02*
X526Y1118D01*
D02*
X689Y818D02*
X689Y1118D01*
D02*
X960Y728D02*
X689Y818D01*
D02*
X289Y482D02*
X289Y355D01*
D02*
X289Y882D02*
X289Y755D01*
D02*
X289Y2082D02*
X289Y1955D01*
D02*
X289Y1682D02*
X289Y1555D01*
D02*
X570Y118D02*
X526Y118D01*
D02*
X909Y1118D02*
X959Y1118D01*
D02*
X570Y518D02*
X526Y518D01*
D02*
X570Y918D02*
X526Y918D01*
D02*
X570Y1318D02*
X526Y1318D01*
D02*
X526Y1318D02*
X570Y1318D01*
D02*
X570Y1718D02*
X526Y1718D01*
D02*
X570Y2118D02*
X526Y2118D01*
D02*
X526Y2318D02*
X789Y2317D01*
D02*
X789Y2317D02*
X789Y1717D01*
D02*
X688Y1918D02*
X526Y1918D01*
D02*
X960Y1528D02*
X691Y1618D01*
D02*
X688Y1517D02*
X526Y1518D01*
D02*
X960Y1428D02*
X688Y1517D01*
D02*
X202Y1232D02*
X263Y1293D01*
D02*
X202Y1205D02*
X263Y1144D01*
D02*
X1289Y1918D02*
X1289Y1643D01*
D02*
X1434Y1991D02*
X1289Y1918D01*
D02*
X1087Y1217D02*
X1267Y1129D01*
D02*
X1087Y2019D02*
X1087Y1217D01*
D02*
X1246Y2108D02*
X1087Y2019D01*
D02*
X1188Y718D02*
X1289Y717D01*
D02*
X1289Y717D02*
X1359Y718D01*
D02*
X1019Y718D02*
X1188Y718D01*
D02*
X1959Y813D02*
X1519Y724D01*
D02*
X1090Y918D02*
X1019Y918D01*
D02*
X1273Y1011D02*
X1090Y918D01*
D02*
X1090Y817D02*
X1019Y818D01*
D02*
X1273Y911D02*
X1090Y817D01*
D02*
X1491Y1120D02*
X1489Y849D01*
D02*
X1564Y1119D02*
X1491Y1120D01*
D02*
X1390Y1217D02*
X1389Y849D01*
D02*
X1564Y1218D02*
X1390Y1217D01*
D02*
X1789Y918D02*
X1609Y919D01*
D02*
X1789Y1418D02*
X1789Y918D01*
D02*
X1614Y1418D02*
X1789Y1418D01*
D02*
X1688Y1019D02*
X1609Y1019D01*
D02*
X1688Y1318D02*
X1688Y1019D01*
D02*
X1614Y1318D02*
X1688Y1318D01*
D02*
X1889Y1118D02*
X1890Y1620D01*
D02*
X1890Y1620D02*
X1614Y1619D01*
D02*
X1959Y1118D02*
X1889Y1118D01*
D02*
X1202Y1505D02*
X1271Y1436D01*
D02*
X1202Y1605D02*
X1271Y1536D01*
D02*
X1589Y400D02*
X1592Y252D01*
D02*
X1789Y400D02*
X1789Y252D01*
D02*
X1202Y1405D02*
X1271Y1336D01*
D02*
X1202Y1305D02*
X1271Y1236D01*
D02*
X1189Y400D02*
X1192Y252D01*
D02*
X1389Y400D02*
X1389Y252D01*
D02*
X1190Y1118D02*
X1264Y1118D01*
D02*
X1089Y1118D02*
X1190Y1118D01*
D02*
X1019Y1118D02*
X1089Y1118D01*
D02*
X808Y1218D02*
X959Y1218D01*
D02*
X2070Y818D02*
X2019Y818D01*
D02*
X2608Y1718D02*
X2652Y1718D01*
D02*
X2388Y1518D02*
X2388Y1918D01*
D02*
X2388Y1918D02*
X2652Y1918D01*
D02*
X2652Y1518D02*
X2388Y1518D01*
D02*
X2070Y718D02*
X2019Y718D01*
D02*
X2889Y1682D02*
X2889Y1555D01*
D02*
X2889Y1237D02*
X2889Y1282D01*
D02*
X2189Y1117D02*
X2189Y1218D01*
D02*
X2189Y1218D02*
X2370Y1218D01*
D02*
X2019Y1118D02*
X2189Y1117D01*
D02*
X691Y1618D02*
X688Y1918D01*
D02*
X789Y1717D02*
X962Y1632D01*
D02*
X2588Y819D02*
X2650Y819D01*
D02*
X2588Y1518D02*
X2588Y819D01*
D02*
X2652Y1518D02*
X2588Y1518D01*
D02*
X2389Y1518D02*
X2013Y1237D01*
D02*
X2652Y1518D02*
X2389Y1518D01*
G04 End of Copper0*
M02*