; NON-PLATED HOLES START AT T1
; THROUGH (PLATED) HOLES START AT T100
M48
INCH
T100C0.045046
T101C0.045031
T102C0.027559
T103C0.038000
T104C0.030476
%
T100
X010992Y001097
T101
X012960Y001097
T102
X014992Y011097
X014992Y010097
X011992Y007097
X014992Y007097
X011992Y008097
X014992Y009097
X017992Y009097
X011992Y012097
X014992Y012097
X014992Y008097
X011992Y010097
X011992Y011097
X011992Y009097
T103
X008992Y011097
X018992Y007097
X018992Y016097
X022992Y005097
X018992Y003097
X008992Y009097
X008992Y003097
X008992Y007097
X018992Y005097
X022992Y006097
X008992Y005097
X008992Y010097
X008992Y012097
X018992Y015097
X022992Y008097
X018992Y004097
X018992Y012097
X014992Y013097
X008992Y008097
X008992Y006097
X018992Y011097
X008992Y004097
X018992Y008097
X018992Y014097
X018992Y010097
X008992Y015097
X022992Y009097
X008992Y014097
X018992Y013097
X008992Y016097
X018992Y006097
X018992Y009097
X008992Y013097
X022992Y007097
T104
X011992Y016113
X011992Y017097
X011992Y019097
X011992Y018097
X016992Y018097
X016992Y019097
X016992Y016113
X016992Y017097
T00
M30
