; NON-PLATED HOLES START AT T1
; THROUGH (PLATED) HOLES START AT T100
M48
INCH
T100C0.100000
T101C0.038000
T102C0.045046
T103C0.045031
T104C0.027559
T105C0.015748
T106C0.051181
T107C0.055118
%
T100
X014890Y022584
X012990Y021384
X014890Y020184
T101
X019890Y015184
X023890Y011184
X009890Y008184
X019890Y010184
X009890Y016184
X009890Y012184
X009890Y007184
X014890Y007184
X009890Y005184
X019890Y007184
X009890Y015184
X019890Y009184
X009890Y018184
X023890Y007184
X019890Y018184
X023890Y009184
X009890Y009184
X019890Y011184
X019890Y005184
X013890Y008184
X019890Y012184
X019890Y016184
X009890Y013184
X009890Y011184
X013890Y007184
X023890Y010184
X009890Y006184
X019890Y017184
X019890Y014184
X019890Y008184
X009890Y017184
X014890Y008184
X013890Y006184
X019890Y013184
X014890Y006184
X019890Y006184
X009890Y010184
X023890Y008184
X009890Y014184
T102
X011921Y002184
X015921Y002184
T103
X013890Y002184
X017890Y002184
T104
X015890Y014184
X015890Y011184
X015890Y012184
X012890Y012184
X012890Y011184
X012890Y015184
X012890Y013184
X015890Y013184
X015890Y015184
X012890Y014184
X015890Y016184
X012890Y016184
T105
X025890Y017184
X008899Y011173
X011890Y014184
X011890Y015184
X007890Y012184
X020890Y008184
X005890Y005184
X005890Y001184
X012899Y010191
X023890Y012184
X005890Y017184
X028890Y012184
X011890Y016184
X011890Y013184
X020890Y007184
X015899Y009191
X017890Y004184
X005890Y021184
X015890Y004184
X013890Y004184
X015899Y010191
X001890Y012184
X005890Y013184
X011890Y004184
X005890Y009184
X012899Y009191
T106
X002890Y011184
X002890Y007184
X004890Y021184
X002890Y005184
X002890Y009184
X004890Y009184
X028890Y013184
X004890Y013184
X002890Y003184
X002890Y001184
X002890Y023184
X004890Y003184
X026890Y017184
X004890Y015184
X002890Y017184
X026890Y015184
X004890Y001184
X004890Y011184
X004890Y017184
X002890Y019184
X004890Y007184
X028890Y019184
X002890Y021184
X002890Y015184
X028890Y015184
X028890Y017184
X002890Y013184
X026890Y013184
X026890Y019184
X004890Y019184
X004890Y005184
X004890Y023184
T107
X028890Y008184
X026890Y008184
X028890Y006184
X026890Y006184
T00
M30
